<svg xmlns="http://www.w3.org/2000/svg" xmlns:xlink="http://www.w3.org/1999/xlink" preserveAspectRatio="xMidYMid meet" version="1.0" viewBox="-48.5 0.0 799.2 844.6" zoomAndPan="magnify" style="fill: rgb(0, 0, 0);" original_string_length="1156" width="176.2797698661884px" height="186.42854259941078px"><g><g id="__id0_seinui3yai"><path d="M651.775,687.033C566.44,826.11,461.889,844.626,362.72,802.878c0.573-20.074,2.131-41.715,5.086-64.505 c19.369-149.412,209.827-397.368,212.1-400.326c-2.304,1.919-195.18,162.569-260.361,363.299 c-8.269,25.466-13.8,48.247-17.13,68.647c-103.3-69.378-152.178-177.716-57.241-332.443 c98.942-161.255,428.894-242.927,428.894-242.927S750.717,525.778,651.775,687.033z" style="fill: rgb(163, 177, 138);"/></g><g id="__id1_seinui3yai"><path d="M432.158,249.84c-72.71,34.42-147.19,80.17-193.81,137.15c-69.6-108.85-128.722-225.462-130.122-228.852 c0.6,3.58,30.942,133.282,104.562,266.182c-38.06,65.35-50.16,122.24-43.27,171.26c-48.74-16.89-94.48-57.27-133.27-129.45 C-48.452,308.52,41.838,0,41.838,0S345.408,93.87,432.158,249.84z" style="fill: rgb(61, 85, 12);"/></g></g></svg>