<?xml version="1.0" encoding="UTF-8"?>
<!DOCTYPE svg PUBLIC "-//W3C//DTD SVG 1.1//EN" "http://www.w3.org/Graphics/SVG/1.1/DTD/svg11.dtd">
<svg xmlns="http://www.w3.org/2000/svg" version="1.1" width="666px" height="374px" style="shape-rendering:geometricPrecision; text-rendering:geometricPrecision; image-rendering:optimizeQuality; fill-rule:evenodd; clip-rule:evenodd" xmlns:xlink="http://www.w3.org/1999/xlink">
<g><path style="opacity:0.004" fill="#fefffe" d="M 635.5,3.5 C 636.833,4.16667 636.833,4.16667 635.5,3.5 Z"/></g>
<g><path style="opacity:0.004" fill="#fefffe" d="M 62.5,10.5 C 63.8333,11.1667 63.8333,11.1667 62.5,10.5 Z"/></g>
<g><path style="opacity:0.004" fill="#feff00" d="M 23.5,21.5 C 24.8333,22.1667 24.8333,22.1667 23.5,21.5 Z"/></g>
<g><path style="opacity:0.004" fill="#fefffe" d="M 632.5,22.5 C 633.833,23.1667 633.833,23.1667 632.5,22.5 Z"/></g>
<g><path style="opacity:0.004" fill="#fefffe" d="M 53.5,23.5 C 54.8333,24.1667 54.8333,24.1667 53.5,23.5 Z"/></g>
<g><path style="opacity:0.004" fill="#fefffe" d="M 593.5,24.5 C 594.833,25.1667 594.833,25.1667 593.5,24.5 Z"/></g>
<g><path style="opacity:0.004" fill="#fefffe" d="M 92.5,26.5 C 93.8333,27.1667 93.8333,27.1667 92.5,26.5 Z"/></g>
<g><path style="opacity:0.004" fill="#fefffe" d="M 41.5,38.5 C 42.8333,39.1667 42.8333,39.1667 41.5,38.5 Z"/></g>
<g><path style="opacity:0.004" fill="#feff00" d="M 47.5,43.5 C 48.8333,44.1667 48.8333,44.1667 47.5,43.5 Z"/></g>
<g><path style="opacity:0.004" fill="#fefffe" d="M 599.5,46.5 C 600.833,47.1667 600.833,47.1667 599.5,46.5 Z"/></g>
<g><path style="opacity:0.004" fill="#fefffe" d="M 326.5,61.5 C 327.833,62.1667 327.833,62.1667 326.5,61.5 Z"/></g>
<g><path style="opacity:0.004" fill="#fefffe" d="M 497.5,63.5 C 498.833,64.1667 498.833,64.1667 497.5,63.5 Z"/></g>
<g><path style="opacity:0.004" fill="#fefffe" d="M 23.5,68.5 C 24.8333,69.1667 24.8333,69.1667 23.5,68.5 Z"/></g>
<g><path style="opacity:0.004" fill="#fefffe" d="M 83.5,77.5 C 84.8333,78.1667 84.8333,78.1667 83.5,77.5 Z"/></g>
<g><path style="opacity:0.004" fill="#fefffe" d="M 74.5,90.5 C 75.8333,91.1667 75.8333,91.1667 74.5,90.5 Z"/></g>
<g><path style="opacity:0.942" fill="#aeb899" d="M 628.5,112.5 C 627.07,112.421 625.736,112.754 624.5,113.5C 614.73,111.032 604.73,109.532 594.5,109C 592.375,108.184 590.541,107.017 589,105.5C 584.936,105.316 580.769,105.649 576.5,106.5C 560.652,103.737 544.652,102.904 528.5,104C 527.584,104.374 526.75,104.874 526,105.5C 519.012,105.831 512.179,105.831 505.5,105.5C 502.725,106.923 499.725,107.589 496.5,107.5C 496.5,108.5 496.5,109.5 496.5,110.5C 491.818,110.624 487.318,110.29 483,109.5C 476.612,111.247 470.112,112.247 463.5,112.5C 497.352,102.748 532.018,99.248 567.5,102C 588.39,103.241 608.724,106.741 628.5,112.5 Z"/></g>
<g><path style="opacity:0.004" fill="#fefffe" d="M 608.5,104.5 C 609.833,105.167 609.833,105.167 608.5,104.5 Z"/></g>
<g><path style="opacity:1" fill="#a2b18a" d="M 422.5,129.5 C 425.456,128.863 428.456,128.363 431.5,128C 439.246,121.785 448.246,118.119 458.5,117C 460.66,116.004 462.327,114.504 463.5,112.5C 470.112,112.247 476.612,111.247 483,109.5C 487.318,110.29 491.818,110.624 496.5,110.5C 496.5,109.5 496.5,108.5 496.5,107.5C 499.725,107.589 502.725,106.923 505.5,105.5C 512.179,105.831 519.012,105.831 526,105.5C 526.75,104.874 527.584,104.374 528.5,104C 544.652,102.904 560.652,103.737 576.5,106.5C 580.769,105.649 584.936,105.316 589,105.5C 590.541,107.017 592.375,108.184 594.5,109C 604.73,109.532 614.73,111.032 624.5,113.5C 625.736,112.754 627.07,112.421 628.5,112.5C 628.414,113.496 628.748,114.329 629.5,115C 637.973,117.708 646.639,119.875 655.5,121.5C 655.351,122.552 655.517,123.552 656,124.5C 658.355,125.349 660.188,126.849 661.5,129C 660.069,131.292 659.236,133.792 659,136.5C 657.921,138.394 656.587,138.727 655,137.5C 651.681,142.666 647.181,147.333 641.5,151.5C 642.127,152.417 642.461,153.417 642.5,154.5C 632.718,166.458 623.885,179.125 616,192.5C 604.936,213.628 593.602,234.628 582,255.5C 569.948,276.744 555.115,295.911 537.5,313C 505.759,337.182 470.093,345.515 430.5,338C 408.191,333.951 386.524,327.784 365.5,319.5C 364.359,317.579 364.192,315.579 365,313.5C 379.241,267.601 403.741,228.101 438.5,195C 472.724,166.228 512.057,148.228 556.5,141C 511.457,141.95 469.457,153.617 430.5,176C 394.739,199.684 369.073,231.517 353.5,271.5C 352.069,272.903 350.902,274.569 350,276.5C 349.51,277.793 349.343,279.127 349.5,280.5C 348.178,280.33 347.011,280.663 346,281.5C 345.055,284.282 344.888,286.949 345.5,289.5C 344.731,292.253 343.397,295.086 341.5,298C 342.983,300.573 342.483,302.74 340,304.5C 338.982,302.102 337.815,299.769 336.5,297.5C 335.353,299.765 335.186,302.098 336,304.5C 336.333,304.167 336.667,303.833 337,303.5C 339.049,307.155 339.883,311.155 339.5,315.5C 337.574,327.806 335.908,339.973 334.5,352C 335.369,357.129 335.702,362.296 335.5,367.5C 335.5,367.833 335.5,368.167 335.5,368.5C 333.83,368.249 332.33,367.582 331,366.5C 330.29,351.844 328.79,337.344 326.5,323C 327.654,322.086 327.487,321.253 326,320.5C 324.637,314.959 324.471,309.459 325.5,304C 324.809,302.933 324.309,301.766 324,300.5C 323.311,301.357 322.478,302.023 321.5,302.5C 320.734,298.203 319.401,294.203 317.5,290.5C 296.256,218.53 249.589,172.03 177.5,151C 167.545,148.642 157.545,146.476 147.5,144.5C 144.813,142.874 142.313,140.874 140,138.5C 138.431,139.122 136.764,139.456 135,139.5C 129.84,138.453 124.673,137.453 119.5,136.5C 118.158,137.902 117.324,137.569 117,135.5C 115.151,136.561 113.151,137.227 111,137.5C 109.221,136.622 107.555,136.622 106,137.5C 104.108,134.61 103.275,134.944 103.5,138.5C 101.234,138.141 99.4007,138.808 98,140.5C 96.9125,138.068 96.4125,138.402 96.5,141.5C 104.423,142.54 112.256,143.873 120,145.5C 120.414,145.043 120.914,144.709 121.5,144.5C 122.556,146.646 124.056,148.312 126,149.5C 128.4,148.956 130.733,148.289 133,147.5C 136.242,151.454 139.742,152.121 143.5,149.5C 186.76,162.291 222.426,186.291 250.5,221.5C 250.34,223.199 250.506,224.866 251,226.5C 254.202,229.758 256.869,233.424 259,237.5C 260.085,238.293 261.252,238.96 262.5,239.5C 263.973,245.643 266.973,250.81 271.5,255C 272.448,255.483 273.448,255.649 274.5,255.5C 285.188,275.055 293.855,295.555 300.5,317C 300.167,317.833 299.833,318.667 299.5,319.5C 269.466,332.033 238.132,339.033 205.5,340.5C 196.811,339.887 188.145,339.054 179.5,338C 176.045,337.102 172.711,335.935 169.5,334.5C 168.136,330.236 165.136,328.403 160.5,329C 157.28,327.804 154.447,325.971 152,323.5C 151.586,323.957 151.086,324.291 150.5,324.5C 148.885,323.846 147.218,323.346 145.5,323C 144.284,321.26 142.618,320.26 140.5,320C 137.5,317.667 137.833,316 141.5,315C 137.34,313.376 133.007,312.209 128.5,311.5C 128.649,310.448 128.483,309.448 128,308.5C 124.411,306.035 121.244,303.035 118.5,299.5C 119.462,297.117 118.462,296.117 115.5,296.5C 115.5,295.5 115.5,294.5 115.5,293.5C 112.525,293.693 110.025,292.693 108,290.5C 106.512,286.19 104.512,282.19 102,278.5C 101.667,279.167 101.333,279.833 101,280.5C 100.39,277.978 99.0569,275.978 97,274.5C 96.51,273.207 96.3433,271.873 96.5,270.5C 95.448,270.649 94.448,270.483 93.5,270C 94.2583,268.636 93.7583,267.469 92,266.5C 91.3322,262.151 89.3322,258.484 86,255.5C 85.6174,256.056 85.1174,256.389 84.5,256.5C 76.6799,244.873 69.8466,232.54 64,219.5C 52.4866,197.786 39.4866,177.119 25,157.5C 17.759,149.645 10.0924,142.311 2,135.5C 1.24316,133.685 0.409824,132.019 -0.5,130.5C -0.5,129.833 -0.5,129.167 -0.5,128.5C 0.95803,124.88 3.6247,122.38 7.5,121C 70.4371,98.8253 134.437,95.4919 199.5,111C 243.157,123.018 278.323,147.185 305,183.5C 317.084,203.055 326.084,224.055 332,246.5C 339.258,221.32 350.258,197.987 365,176.5C 380.629,156.445 399.795,140.778 422.5,129.5 Z"/></g>
<g><path style="opacity:0.004" fill="#fefffe" d="M 206.5,106.5 C 207.833,107.167 207.833,107.167 206.5,106.5 Z"/></g>
<g><path style="opacity:0.004" fill="#fefffe" d="M 398.5,109.5 C 399.833,110.167 399.833,110.167 398.5,109.5 Z"/></g>
<g><path style="opacity:0.996" fill="#aeb79c" d="M 463.5,112.5 C 462.327,114.504 460.66,116.004 458.5,117C 448.246,118.119 439.246,121.785 431.5,128C 428.456,128.363 425.456,128.863 422.5,129.5C 435.129,121.591 448.796,115.924 463.5,112.5 Z"/></g>
<g><path style="opacity:0.004" fill="#fefffe" d="M 335.5,122.5 C 336.833,123.167 336.833,123.167 335.5,122.5 Z"/></g>
<g><path style="opacity:1" fill="#aeb89c" d="M 628.5,112.5 C 638.332,114.748 647.999,117.582 657.5,121C 661.35,122.353 664.017,124.853 665.5,128.5C 665.5,129.167 665.5,129.833 665.5,130.5C 658.463,139.168 650.797,147.168 642.5,154.5C 642.461,153.417 642.127,152.417 641.5,151.5C 647.181,147.333 651.681,142.666 655,137.5C 656.587,138.727 657.921,138.394 659,136.5C 659.236,133.792 660.069,131.292 661.5,129C 660.188,126.849 658.355,125.349 656,124.5C 655.517,123.552 655.351,122.552 655.5,121.5C 646.639,119.875 637.973,117.708 629.5,115C 628.748,114.329 628.414,113.496 628.5,112.5 Z"/></g>
<g><path style="opacity:0.941" fill="#aab596" d="M 147.5,144.5 C 132.28,141.693 116.946,140.193 101.5,140C 115.852,141.779 129.852,144.945 143.5,149.5C 139.742,152.121 136.242,151.454 133,147.5C 130.733,148.289 128.4,148.956 126,149.5C 124.056,148.312 122.556,146.646 121.5,144.5C 120.914,144.709 120.414,145.043 120,145.5C 112.256,143.873 104.423,142.54 96.5,141.5C 96.4125,138.402 96.9125,138.068 98,140.5C 99.4007,138.808 101.234,138.141 103.5,138.5C 103.275,134.944 104.108,134.61 106,137.5C 107.555,136.622 109.221,136.622 111,137.5C 113.151,137.227 115.151,136.561 117,135.5C 117.324,137.569 118.158,137.902 119.5,136.5C 124.673,137.453 129.84,138.453 135,139.5C 136.764,139.456 138.431,139.122 140,138.5C 142.313,140.874 144.813,142.874 147.5,144.5 Z"/></g>
<g><path style="opacity:0.004" fill="#fefffe" d="M 212.5,165.5 C 213.833,166.167 213.833,166.167 212.5,165.5 Z"/></g>
<g><path style="opacity:0.004" fill="#fefffe" d="M 221.5,172.5 C 222.833,173.167 222.833,173.167 221.5,172.5 Z"/></g>
<g><path style="opacity:0.004" fill="#fefffe" d="M 635.5,176.5 C 636.833,177.167 636.833,177.167 635.5,176.5 Z"/></g>
<g><path style="opacity:0.004" fill="#fefffe" d="M 50.5,238.5 C 51.8333,239.167 51.8333,239.167 50.5,238.5 Z"/></g>
<g><path style="opacity:0.004" fill="#fefffe" d="M 605.5,239.5 C 606.833,240.167 606.833,240.167 605.5,239.5 Z"/></g>
<g><path style="opacity:0.004" fill="#fefffe" d="M 371.5,246.5 C 372.833,247.167 372.833,247.167 371.5,246.5 Z"/></g>
<g><path style="opacity:0.997" fill="#afb89c" d="M 250.5,221.5 C 259.602,231.955 267.602,243.288 274.5,255.5C 273.448,255.649 272.448,255.483 271.5,255C 266.973,250.81 263.973,245.643 262.5,239.5C 261.252,238.96 260.085,238.293 259,237.5C 256.869,233.424 254.202,229.758 251,226.5C 250.506,224.866 250.34,223.199 250.5,221.5 Z"/></g>
<g><path style="opacity:0.004" fill="#fefffe" d="M 617.5,252.5 C 618.833,253.167 618.833,253.167 617.5,252.5 Z"/></g>
<g><path style="opacity:0.004" fill="#fefffe" d="M 626.5,258.5 C 627.833,259.167 627.833,259.167 626.5,258.5 Z"/></g>
<g><path style="opacity:0.004" fill="#fefffe" d="M 71.5,261.5 C 72.8333,262.167 72.8333,262.167 71.5,261.5 Z"/></g>
<g><path style="opacity:0.004" fill="#fefffe" d="M 584.5,261.5 C 585.833,262.167 585.833,262.167 584.5,261.5 Z"/></g>
<g><path style="opacity:0.004" fill="#fefffe" d="M 305.5,270.5 C 306.833,271.167 306.833,271.167 305.5,270.5 Z"/></g>
<g><path style="opacity:1" fill="#abb596" d="M 353.5,271.5 C 348.214,287.195 344.047,303.195 341,319.5C 338.733,335.318 336.9,351.318 335.5,367.5C 335.702,362.296 335.369,357.129 334.5,352C 335.908,339.973 337.574,327.806 339.5,315.5C 339.883,311.155 339.049,307.155 337,303.5C 336.667,303.833 336.333,304.167 336,304.5C 335.186,302.098 335.353,299.765 336.5,297.5C 337.815,299.769 338.982,302.102 340,304.5C 342.483,302.74 342.983,300.573 341.5,298C 343.397,295.086 344.731,292.253 345.5,289.5C 344.888,286.949 345.055,284.282 346,281.5C 347.011,280.663 348.178,280.33 349.5,280.5C 349.343,279.127 349.51,277.793 350,276.5C 350.902,274.569 352.069,272.903 353.5,271.5 Z"/></g>
<g><path style="opacity:0.004" fill="#fefffe" d="M 641.5,312.5 C 642.833,313.167 642.833,313.167 641.5,312.5 Z"/></g>
<g><path style="opacity:1" fill="#acb698" d="M 169.5,334.5 C 160.761,332.466 152.427,329.3 144.5,325C 135.599,319.434 127.265,313.101 119.5,306C 106.458,291.628 94.9581,276.128 85,259.5C 84.5172,258.552 84.3505,257.552 84.5,256.5C 85.1174,256.389 85.6174,256.056 86,255.5C 89.3322,258.484 91.3322,262.151 92,266.5C 93.7583,267.469 94.2583,268.636 93.5,270C 94.448,270.483 95.448,270.649 96.5,270.5C 96.3433,271.873 96.51,273.207 97,274.5C 99.0569,275.978 100.39,277.978 101,280.5C 101.333,279.833 101.667,279.167 102,278.5C 104.512,282.19 106.512,286.19 108,290.5C 110.025,292.693 112.525,293.693 115.5,293.5C 115.5,294.5 115.5,295.5 115.5,296.5C 118.462,296.117 119.462,297.117 118.5,299.5C 121.244,303.035 124.411,306.035 128,308.5C 128.483,309.448 128.649,310.448 128.5,311.5C 133.007,312.209 137.34,313.376 141.5,315C 137.833,316 137.5,317.667 140.5,320C 142.618,320.26 144.284,321.26 145.5,323C 147.218,323.346 148.885,323.846 150.5,324.5C 151.086,324.291 151.586,323.957 152,323.5C 154.447,325.971 157.28,327.804 160.5,329C 165.136,328.403 168.136,330.236 169.5,334.5 Z"/></g>
<g><path style="opacity:1" fill="#aeb79b" d="M 317.5,290.5 C 319.401,294.203 320.734,298.203 321.5,302.5C 322.478,302.023 323.311,301.357 324,300.5C 324.309,301.766 324.809,302.933 325.5,304C 324.471,309.459 324.637,314.959 326,320.5C 327.487,321.253 327.654,322.086 326.5,323C 328.79,337.344 330.29,351.844 331,366.5C 332.33,367.582 333.83,368.249 335.5,368.5C 333.115,371.118 330.948,370.784 329,367.5C 327.824,341.401 323.99,315.734 317.5,290.5 Z"/></g>
<g><path style="opacity:0.004" fill="#fefffe" d="M 119.5,334.5 C 120.833,335.167 120.833,335.167 119.5,334.5 Z"/></g>
<g><path style="opacity:0.004" fill="#fefffe" d="M 23.5,335.5 C 24.8333,336.167 24.8333,336.167 23.5,335.5 Z"/></g>
<g><path style="opacity:0.004" fill="#fefffe" d="M 557.5,336.5 C 558.833,337.167 558.833,337.167 557.5,336.5 Z"/></g>
<g><path style="opacity:0.004" fill="#fefffe" d="M 524.5,341.5 C 525.833,342.167 525.833,342.167 524.5,341.5 Z"/></g>
<g><path style="opacity:0.004" fill="#fefffe" d="M 443.5,342.5 C 444.833,343.167 444.833,343.167 443.5,342.5 Z"/></g>
<g><path style="opacity:0.004" fill="#fefffe" d="M 47.5,350.5 C 48.8333,351.167 48.8333,351.167 47.5,350.5 Z"/></g>
<g><path style="opacity:0.004" fill="#fefffe" d="M 641.5,350.5 C 642.833,351.167 642.833,351.167 641.5,350.5 Z"/></g>
<g><path style="opacity:0.004" fill="#fefffe" d="M 581.5,355.5 C 582.833,356.167 582.833,356.167 581.5,355.5 Z"/></g>
<g><path style="opacity:0.004" fill="#fefffe" d="M 311.5,356.5 C 312.833,357.167 312.833,357.167 311.5,356.5 Z"/></g>
<g><path style="opacity:0.004" fill="#fefffe" d="M 632.5,357.5 C 633.833,358.167 633.833,358.167 632.5,357.5 Z"/></g>
<g><path style="opacity:0.004" fill="#fefffe" d="M 395.5,364.5 C 396.833,365.167 396.833,365.167 395.5,364.5 Z"/></g>
<g><path style="opacity:0.004" fill="#fefffe" d="M 488.5,364.5 C 489.833,365.167 489.833,365.167 488.5,364.5 Z"/></g>
<g><path style="opacity:0.004" fill="#fefffe" d="M 248.5,367.5 C 249.833,368.167 249.833,368.167 248.5,367.5 Z"/></g>
<g><path style="opacity:0.004" fill="#fefffe" d="M 219.5,373.5 C 218.833,372.167 218.833,372.167 219.5,373.5 Z"/></g>
</svg>
