<?xml version="1.0" standalone="no"?>
<!DOCTYPE svg PUBLIC "-//W3C//DTD SVG 20010904//EN"
 "http://www.w3.org/TR/2001/REC-SVG-20010904/DTD/svg10.dtd">
<svg version="1.0" xmlns="http://www.w3.org/2000/svg"
 width="257.000000pt" height="150.000000pt" viewBox="0 0 257.000000 150.000000"
 preserveAspectRatio="xMidYMid meet">

<g transform="translate(0.000000,150.000000) scale(0.100000,-0.100000)"
fill="#000000" stroke="none">
<path d="M166 1446 c-48 -18 -92 -59 -118 -110 -16 -31 -19 -54 -16 -111 3
-67 6 -76 45 -126 73 -94 1014 -1024 1056 -1043 52 -24 135 -23 183 3 23 11
259 240 560 543 569 571 550 547 542 659 -10 136 -137 222 -280 189 -52 -12
-63 -22 -478 -436 -234 -233 -432 -424 -440 -424 -8 0 -199 186 -425 414 -225
228 -425 422 -444 431 -47 24 -137 29 -185 11z"/>
</g>
</svg>
